<svg xmlns="http://www.w3.org/2000/svg" viewBox="0 0 80 64">
  <!-- H letter -->
  <rect x="0" y="0" width="10" height="56" fill="#2a9d8f"/>
  <rect x="24" y="0" width="10" height="56" fill="#2a9d8f"/>
  <rect x="10" y="22" width="14" height="12" fill="#4ecdc4"/>
  <!-- G letter with bowing person arch -->
  <rect x="40" y="0" width="10" height="56" fill="#2a9d8f"/>
  <path d="M50 0 L64 0 C72 0, 76 6, 76 14 L76 24 L66 24 L66 14 C66 10, 64 8, 60 8 L56 8 L56 0 Z" fill="#2a9d8f"/>
  <path d="M56 8 L56 24 L66 24 L66 14 C66 10, 64 8, 60 8 Z" fill="#0d1b2a"/>
  <rect x="66" y="24" width="10" height="32" fill="#4ecdc4"/>
  <rect x="40" y="44" width="26" height="12" fill="#4ecdc4"/>
  <rect x="56" y="24" width="10" height="10" fill="#4ecdc4"/>
</svg>
